<svg xmlns="http://www.w3.org/2000/svg" width="252" height="340" viewBox="0 0 1008 1360"><path fill="#FEFEFE" d="M0 0h1008v1360H0z"/><path fill="#1E023E" d="m481 603 5 1 11 12 7 8 12 13 16 17 9 10 16 17 7 8 15 16 7 8 4 5 5 2 1-23 3-4v-9l4-3h6l4 5-1 7 4 5 2 27 2 1 121 1 1 1v8l-2 3-1 99h26v-85l-18-1-1-51-1-4 3-1v-8l-4-2 3-3 4-29 3-31h2l5 31 2 23v7h9l1-21 4-41h2l2 9 5 40 1 11 3 3v3l-3 3 2 7 2 4-1 4-2 3v18l1 23 12 1 1 6-2 7-5 5-1 2-1 41v29l11 8 1 1v5l-6 1 1 11 15 1 1 1v6l-1 2-4 2-1 65 6 2-1 4-4 2-1 171h41l1 8 1 27 52 1v135l-1 1H767l-1-1v-37h-27l-1 37h-29l-1-90-3-12-6-10-9-8-12-5h-8l-9 4-8 6-9 13-3 7-1 95-2 1h-18l-2-1v-37h-27l-1 37-1 1h-57l-1-1-1-87-6-16-6-10-9-10-8-7-16-9-4-1-17 10-10 9-7 8-7 11-4 13-1 4-1 79-1 7h-53l-5-1-1-36-26-1v37l-2 1h-17l-4-1-1-88-2-11-5-10-8-9-12-6-3-1h-8l-10 4-10 9-7 12-2 5-1 95-1 1h-27l-2-1v-37h-26l-1 37-1 1H61l-1-1v-135l52-1 1-35 42-1V952l-7-2v-4l7-3v-64l-7-3-1-6 4-2 15-1v-10l-7-2-1-2 5-5 7-5h2v-50l-1-23-6-7-1-11 2-2 10 1v-44l-2-3 1-6 3-5v-4l-3-2v-3l4-1v-11l6-49h2l4 31 3 22v8h8l2-29 4-33h2l2 9 4 38v14l4 2-2 4-1 4 2 3-1 55-1 1h-18v86h27l-1-99-1-1v-11l123-1 1-2 1-27 2-4 1-9 4-3h7l4 4v9l2 4 1 19 1 2 5-2 12-14 7-7 7-8 14-15 9-10 5-6h2l2-4 11-11 7-8 13-14 7-8z"/><path fill="#1E023E" d="m481 87 6 2 8 7 4 5-2 5-4 7v8h5l6-7 3-2 6 1 10 11 1 7-7 8-6 5-3 1-6-4-4-5h-5v57l4 7 3 3 3-26h2l3 21 3 24 2 14 1 5-1 7 4 6 6 4 1 1v5l-2 3 1 5 3 2h5l1-6-2-6 2-4 4-36 4-22h1l4 31 4 29 2 4-1 2h-2l2 7 1 3v8l-6 7-1 3 1 5 4 3-1 8-1 1-1 12-1 32-1 70-1 38h3l5-38h2l5 38 6 8-5 5 1 3 3 2v6l-4 6 1 9 12 3 15 3h4l2-4 6-4 7 1 11 8 2 2v4l-7 2v16l6 2 1 5-2 2h-4l1 104h3l1-18 3-3 3-1 1-48 2-1 3 30 1 14 1 4 4 1-1-18v-56h2l5 48 1 12 4 2v2l-4 2 1 7h65v-6l-3-3v-2l3-2 4-37 2-22 2-1 1 5 3 25 3 18 2 13 1 4-2 3 1 5 4 6-1 4-2 2v13l3 4-1 5h-2l-2 64H622l-1-24-3-13-3-5-6-3h-8l-5 4-4 11-1 4-1 13-4-1-12-14-11-11-4-5v-2h-2v-2l24-1v-66l-1-8-4-3v-3l6-1-2-9-5-8-4-7-5 1-4 8-3 5-3 6 1 4 5 3-4 5-1 4-1 69-4-2-9-11-8-8-7-8-15-16-11-12-12-13-2-3v-35l3-2 5 2 2 3 5-1 5-5v-6l-3-1-4-5-4 2-4 4-5-1v-6l4-5-2-5-5-4h-5l-5 5h-2l3 7v9h-4l-3-3v-2l-7 1-4 5h-2l2 6 6 5 5-1 3-3 5 1v35l-7 8-9 10-7 8-7 7-7 8-24 26-6 5-1-2-2-71-3-2v-4l4-2-1-8-4-6-4-8-5-1-4 6-3 7-3 4v6l4 3-1 5h-3v74l24 1-2 4-7 8-14 15-7 8-2 1-2-16-5-13-4-3-8-1-6 3-3 4-4 12-1 26H241l-1-4-2-54-4-12 3-2v-14l-2-3v-5l5-5v-6l-2-4 3-1 2-28 4-34 2 2 3 19 4 41 3 1-2 4v7h65l-1-7-1-4 1-1 4-36 4-23h2l-1 67-1 4h5l1-16 3-27 2 4 1 39 6 3 1 8v13h3V543l-4-2v-6l5-1-1-17-5-3-1-2 5-5 13-8 5 2 4 3 1 5 32-7 1-1v-9l-5-7v-4l5-3-1-4-4-2 1-4 4-2 3-21 2-19 2-1 3 11 3 27 4 1-1-7-4-146-2-5v-5l5-1-1-12-5-2-1-2 1-11 2-3-1-4-1-5 2-8 5-37 3-16h1l5 42 2 18 2 1-1 4-1 1 1 7 5 1 5-4v-4l-4-2 1-5 5-4 5-5 2-3 1-5-3-1-1-3 3-3 4-40 2-19h2l2 7 2 20 6-8 2-6v-54l-7 3-6 5-7 1-10-11-2-4 1-5 12-12 5 1 7 5v2l7 1-2-10-6-10 4-5 8-7z"/><path fill="#FEFEFE" d="M470 799h24l13 4 13 7 10 9 8 9 7 15 3 11 1 13-3 15-6 15-8 10-10 10-16 8-8 3-12 2-15-1-13-4-12-6-11-9-9-12-7-15-2-10v-19l3-12 9-17 7-8 13-10 14-6zm121 146h26l1 1v254l-8 1h-15l-5-1V946zm148 0h26l1 2v252l-1 1-11 1h-11l-4-1-1-4V950zm-540 0h26l1 1v254l-23 1-4-1zm150 0h25l1 1v253l-1 1-19 1-7-1V946zm-70-120h8l7 4 6 8 1 5v76l-1 1h-34v-78l3-7 6-7zm398 0h9l6 4 5 6 2 7v76l-1 1h-33l-1-3v-72l2-7 6-9z"/><path fill="#301550" d="m528 717 6 1 6 2 7 6v13l-3 7h20l2 2-9 11-4 3-3 1-25 2-5 4v5l4 3v3l4 2 1 4-5 6-3 5h-5l-7-5-29-29 12-14h2l2-4 21-21z"/><path fill="#2F144F" d="M198 945h1v255h27l-1 4-7 2-4-2v-3h-4l2 8v2h10l4 1v34l-7 1h-18l-2-1v-37l-1-8-1-84-2 3-5 1-8-7-4-5-8-6v-2l-4-2-5-5-1-2h-3v5h-1V953h1v129l5-2 1-2 5-1 5 2 8 7 1-1 1-23 1-7 2-4 4-1 5 1v-2h2zm414-398h1l1 99h3l1-18 3-3 3-1 1-48 2-1 3 30 1 14 1 4 4 1-1-18v-56h2l5 48 1 12 4 2v2l-4 2 1 7 12 1 1 2 6 2-1 3-9 4 1 1 1 12-1 1h-10v2l-7 1-2 1v7l4 4 3 1 1 8-7 6-2 1h-6l-2-1-1-6-4-2-6-4-10-8-6-5-3-5 1-4 4-5 5-2 1-4h4z"/><path fill="#FEFEFE" d="M591 752h27v86l-2 1h-23l-3-2v-84zM481 341l4 1 5 5 3 4v109l-6 1h-12l-3-1V356l3-9 4-5zm109 508h27l1 1v84l-9 1h-16l-3-2zm-242-97h26l1 1v84l-1 1-25 1-1-1zm180 216 9 1 7 5 5 8v56l-1 1h-33l-1-2v-53l4-8 8-7zm-240 16 7 1 6 4 6 8 1 3v55h-35v-56l6-10 6-4zm142-16 9 1 6 4 5 9 1 4v52l-2 1h-32l-1-1v-55l5-8 7-6zm309-119h25l2 2v82l-1 1h-26l-1-2zm-68 135 9 1 8 7 4 8v55h-34l-1-2v-52l3-8 9-8zM200 849h25l1 1v84l-23 1-4-1v-84zm149 0h25l1 4v80l-1 1-25 1-1-1v-84z"/><path fill="#2F144F" d="M156 1097h2l5 7 8 7 2 4-1 5-4 4-1 4-5 1-6-2h-5l-3 11-8 11-13 13-5 6 1 4 8 9-2 4-6 7h-5l-7-7-8-7-14-14-3-4 26-2 1-35 42-1zm289-624 11 4h3l4 1 1-4 7 2v5l4 4v-6l3-4 6-1 4 3h7v-2h2l1-2h4v2l10 2h3v-2l5-1 3 6v15h-11l-1-6-2 3-2-1-1 4h-12l-5-1-1 1h-10l-3-2h-2l-1 2h-11v-2h-6l-3 2h-27v-17h3v-3l2-1h6l2 4 4-1z"/><path fill="#301550" d="M76 1167h7v2l3 1-2 4-10 10-2 6 4 1 9-6 3-3 4-3 7 2 1 6-10 10-1 5 9-1 1-3 5-5h6v2h2v2l3 1-7 8-4 4h-2v2h-2v2l-8 7-4-1v-2h-2l-4-4-10-8-4-4v-4l-2 2-4-2-1 9 6 2 2 4-1 4-1 2h-3l-1 5h-2v8h2v3l4-1 1 1 1-2h2l-1-3 3-3 7-3h3l-1 6-16 16h-2l-1 5h-2v43h-1v-121h1l1 8 6-8z"/><path fill="#2F144F" d="m556 681 13 13 7 8 12 13 6 6-4 6-5 2-1 3h-2l-1 3-6 5-6-1-10-9-4-3v-2l-3-1-5-5v-2l-4-2v-2l-4-2-2-2 1-5 9-10 7-6 1-6z"/><path fill="#FEFEFE" d="m445 345 4 2 3 5 1 5v103l-1 1-9 1-3-1V356zm71 0 5 1 4 13v101l-1 1h-11l-1-1V358l2-7z"/><path fill="#2F144F" d="M811 1123h34l3 2h-8l1 5-2 1v3l-9 5 1 5 4 1 9-6 1-3 4 1 1 4v9l-4 2v4h-2l2 6h3l3 8v9l-1 2h-6l-10-8-2-1v-2l-4-2-14-14-4-7v-5l4-1 1-3 3-3 2-6 5-1-3-2-2-1v2h-6l-1-3z"/><path fill="#FEFEFE" d="M285 671h12l6 3 6 7 2 6-1 9-4 7-5 4-5 2h-10l-8-4-5-7-1-3v-9l5-10zm382 0h13l7 4 5 8 1 2v10l-4 7-7 6-3 1h-11l-9-6-4-7-1-7 3-8 5-7zm-77 540h26l2 1v34l-7 1h-16l-5-1zm149 0h26l1 2v32l-1 1h-27v-33zm-540 0h23l4 1v34l-7 1h-18l-2-1zm150 0h24l1 1 1 7v26l-3 2h-21l-3-1v-34z"/><path fill="#2F144F" d="m392 505 7 1 1 5-2 5 2 5 2 2 2 5 1-10 1-1h9l1 1v15h-41l-3-1v-22l9-3zm190 147h1l1 5 3 1 1 4 2 1-2-6 5-1 2 2v5l-5 3v3h-3v6l12-1 1 3-5 5-4 13-1 13-4-1-12-14-11-11-4-5v-2h-2v-2l24-1zM476 766l1 2h2l1 4 3 1-1 4-5 7-3 3-1 3 6-1 7-5 2-3 4 1 4 4v2l2 1-1 3h-2l1 4-3 3-29 1-6 1-5-10 2-4h2l2-4 7-8 8-7zm-31-293 11 4h3l4 1 1-4 7 2-1 3-9 1-1 13h-5l-3 2h-27v-17h3v-3l2-1h6l2 4 4-1z"/><path fill="#301550" d="M375 947h1l1 252-5 3-2 3h-4v-3l-5-1v2l-2 1 1 2 3 2 10 1v2l-24 1-1 34 3 1h-4v-37l1-5 2-4-2-1 26-1z"/><path fill="#2F144F" d="M603 681h6l4 5-1 7 2 9-1 3-3 3-2 3-7 1-2-1-1 7h-2l-1 2 1-23 3-4v-9zm-51-164h7l2 1 3-1h12v15l-2 1h-25l-1-4 2-11zM60 1207l4 1 5 3v5l-2 3h-3l-1 5h-2v8h2v3l4-1 1 1 1-2h2l-1-3 3-3 7-3h3l-1 6-16 16h-2l-1 5h-2v43h-1z"/><path fill="#1F033F" d="m113 1123 3 1-1 4 2 1-1 9 2 1 1-2 1 1 1-5h16l2 2-9 10-13 13-5 2z"/><path fill="#2F144F" d="M312 633h6l2 2v13l-1 1h-26v-13h8l3 2 2-2 4-2z"/><path fill="#301550" d="M681 636h9l8 4v-4h9v13h-26l-1-1v-11z"/><path fill="#1E023E" d="M641 619h2l1 4 3 3h-3v6l-5 3-1 2h-2l-2 4-9 6-4 1-2-2v-6l5-5 6-3 2-5-2-3h7l1-2 2 1z"/><path fill="#2F144F" d="M693 623h16l-2 2 2 3v3h-2v5h-9v4l-7-2-1-1h-10v-2l-2-1 2-6h2v-2l5-1 2 1v2h-2v2l6 1 2-3v-3z"/><path fill="#301550" d="m512 351 2 1-1 6v102h11V354l2 4v103l-1 1h-13l-2-3V356z"/><path fill="#1E023E" d="M845 1123h6v25h-1l-1-11h-4l1 2-11 7-5-1-1-6 7-5 3-2v-3l1-4 5-1zM526 736h5l-1 5-4 5-16 16-4-1-1-5 8-10 8-7z"/><path fill="#2F144F" d="M348 1200h20v1h-7v2l-2 1 1 2 3 2 10 1v2l-24 1-1 34 3 1h-4v-37l1-5 2-4z"/><path fill="#301550" d="M622 708h1v12l6-1 13-1 5-1 15 2h27l1-2 1 2 33 1v-10h1v11H622z"/><path fill="#FEFEFE" d="M461 479h9l1 2v13l-1 1h-9l-1-2v-13z"/><path fill="#2E134E" d="m338 580 2 4 1 40-7-1 1-16z"/><path fill="#2F144F" d="M774 651h1l1 8 3 8 1 6v9l1 2h-9l1-21z"/><path fill="#FEFEFE" d="M426 479h8l1 1v15h-10v-15zm89 0h7l1 1v15h-10v-15zm-71 0h7l2 2v13l-1 1h-9l-1-11zm88 0h8l1 1v14l-1 1h-8l-1-1v-14zm-36 0h7l2 1v14l-1 1h-8l-1-1v-14zm-17 0h7l1 2v13l-1 1h-8l-1-1v-14z"/><path fill="#301550" d="M180 1122h5l2 4-2 7-8 4-5 1-2-1 1-4 5-5z"/><path fill="#FEFEFE" d="M406 517h9v15h-9l-1-3v-11zm-17 0h9v15h-9l-1-5v-8zm179 0h8v15l-5 1-4-1-1-13zm-195 0h8v15l-1 1-8-1v-14zm211 0h8v15l-5 1-4-1v-14z"/><path fill="#2F144F" d="M693 623h16l-2 2 2 3v3h-2v5h-8l-4-3v-8z"/><path fill="#301550" d="M329 552h2l-1 67h-1l-1-30-2-2-1-12z"/><path fill="#FEFEFE" d="M552 517h7l1 1v14h-9l-1-4 1-10z"/><path fill="#2F144F" d="M534 476h5v3l-7 1-1 14-3 1-3-2-2 2-1-16h7z"/><path fill="#FEFEFE" d="M645 635h8l1 1 1 12-1 1h-8l-1-1zM328 740l5 1 1 12-1 1h-8l-1-1v-10l1-2zm-68-105h5l2 2v12h-8l-1-1v-12z"/><path fill="#301550" d="M375 754h1l1 8v74l-2 3h-2v2l-14-2v-1l15-1z"/><path fill="#FEFEFE" d="m633 740 7 1v13h-8l-1-1v-11z"/><path fill="#301550" d="M635 550h2l2 17-1 16h-1l-1 23h-1z"/><path fill="#FEFEFE" d="M663 636h8l1 1v12h-9zm-388 0h9v13h-8l-1-1zm393 105h8v13h-8l-1-1v-11zm-411-1 6 2v12h-9v-13zm424-104h8v13h-8l-1-1v-11zm-370 0h9v12l-1 1h-7l-1-1zm-18 0h8l1 1v11l-1 1h-8zm-56 104h6l1 1 1 12-1 1h-8v-13zm416 0 5 1v13l-5 1-4-2 1-12z"/><path fill="#301550" d="m497 202 4 1 1 6v6l-2 4h-2v6l-5 1-1-5 3-2 1-9z"/><path fill="#FEFEFE" d="m292 740 6 2v12h-8l-1-5 1-8z"/><path fill="#301550" d="M738 739h1v99l2 1h-3l-1-91-1-4z"/><path fill="#FEFEFE" d="M686 741h7l1 13h-8l-1-1v-10zm-378 0h7l1 1v12h-8l-1-4v-7zm396 0h7l1 13h-9v-12zm-432 0h8v13h-8l-1-3v-7zm451-1 5 1 1 1v11l-1 1h-7v-13z"/><path fill="#2F144F" d="m661 741 6 2v10l-1 1h-6l-4 1 2-1v-12z"/><path fill="#FEFEFE" d="M699 636h8v13h-8z"/><path fill="#301550" d="m700 742 3 1v10l-1 1-7 1h-10l1-2 8 1v-7l2-4v2h2v-2z"/><path fill="#2F144F" d="m653 635 9 1h1v13l-6-1h-3zm-77-118 2 3 4-3 1 1v14l4 1-9-1-4 1 2-1z"/><path fill="#301550" d="m284 636 7 1 2-1v13l-6-1-3 1zm-20 105 6 1 2 3v6l-5 3-2-1-1 2h-10v-1h9l-1-10z"/><path fill="#2F144F" d="m649 740 4 1h-3v9l-1 3-3 1-3-2-1 2h-2v-13l4 4 3-1 1 1z"/><path fill="#301550" d="m398 517 3 4 3 7 2 1v3h9v-14h1v15h-26v-1h8z"/><path fill="#1E023E" d="M575 507h3l1 2 5 1 1 4 1 2h-2v2l-4 1-2 6h-1l-1-8-3-2 2-1-1-3h2l1-3z"/><path fill="#FEFEFE" d="m766 687 6 1v7l-1 2-6 1-2-1v-9zm-571 0 7 1-1 9-2 2-4-1-1-2v-8z"/><path fill="#301550" d="m590 837 3 1h25l-1 2-5 1-8 2h-9l-5-4z"/><path fill="#2F144F" d="m590 1200 8 1v3l2 5 4 2h-14l2-2-2-4z"/><path fill="#301550" d="m549 1292 11 1 29 1v1h-57v-1l13-1zm2-867h2l3 21v7l-3-4-2-10-1-4z"/><path fill="#1E023E" d="m562 696 5 2 1 4-4 4-6-1 2-8z"/><path fill="#2F144F" d="m490 562 6 2v2h-6l1 4h-2l1 17-1 9h-1v-32z"/><path fill="#301550" d="M540 200h1l3 23v7l-2-2-3-20z"/><path fill="#2F144F" d="M573 506h5l-1 6-3-1 2 5v1h-8l3-10z"/><path fill="#301550" d="m542 422 2 1-1 38h-1l-1-15-1-5 1-2v-15z"/><path fill="#1E023E" d="m695 631 2 1-1 1 6 1-3 2-1 4-7-2-5-4 7-1z"/><path fill="#301550" d="M476 481h1v12h-4l-1 2-2-1 2-12 3 3z"/><path fill="#2F144F" d="m278 705 5 2 12 2-4 4-6-1-6-4zm181-529h2l2 7v5h-2v5h-3z"/><path fill="#301550" d="M243 740h3l2 9-2 5-1 1h-9v-1l8-1z"/><path fill="#FEFEFE" d="m466 216 7 5 1 4-1 1h-5l-2-4z"/><path fill="#301550" d="M584 510h5v2h2l1 5h-8v-3zm-236 699 2 2-1 1-1 34 3 1h-4v-37zm315-579 10 1-1 3-1 2h-8l-1-5z"/><path fill="#FEFEFE" d="M497 216h2l-1 9-5 1-1-5z"/><path fill="#301550" d="m425 663 1 3-3 1v2l-15 15v-3l9-9 7-8z"/><path fill="#2F144F" d="M273 636h2v12h-4v-9z"/><path fill="#2D124D" d="M213 649h1l1 16-2 3-1-2v-16z"/><path fill="#301550" d="M430 474h6l1 4-12 2v-2h3v-3z"/><path fill="#2F144F" d="M253 741h1v13l-5-3-1-3 4-4z"/><path fill="#301550" d="m676 741 2 3 1 7h-2v4l-7 1-3-1 1-2 8 1zm-372 2h3l1 7-2 3-3-3v-6zm-43-116 4 2v3l2 1-2 2h-5l1-3-2-1zm19 114 3 4-1 7-1 3h-9v-1h8zm270-223h1v14h7v1h-9l-1-4zm-19-257 2 2v3h2l1 3 2 2-6 3-1-9-1-3zm-77-39h1v14l-1 6-3-1-1-3 3-3zm309 475h8l1 3-4 3-5-4zm-548-28h1v14l2 1-5-1 1-10zm249-195 7 2-1 3h-9l2-1zm299 210h9v4h-9zM523 273l9 1-1 4h-2l1 3-4-1-2-5z"/><path fill="#1E023E" d="m573 712 4 2 1 5h-5l-1-5z"/><path fill="#2F144F" d="M754 623h2l1 9-1 6h-1l-1-5zm-140-89 4 1 1 5-2 1-4-2z"/><path fill="#301550" d="m415 273 2 3v9l-2 1-1-2z"/><path fill="#2F144F" d="M772 688h3l1 6h-2l-1 3h-2z"/><path fill="#301550" d="m412 425 2 2 1 8-2-3v4h-2v-10zm52-308 2 1v2l7 1-1 2h-9l-1-3zm44-3 7 1 2 4-11-2v2h-2v-3z"/></svg>