<svg xmlns="http://www.w3.org/2000/svg" width="199" height="44" fill="none"><rect width="199" height="44" fill="#F2F2F2" rx="22"/><g clip-path="url(#a)"><path fill="#4285F4" d="M35.6 22.227c0-.709-.064-1.39-.182-2.045H26v3.868h5.382a4.6 4.6 0 0 1-1.996 3.018v2.51h3.232c1.891-1.742 2.982-4.305 2.982-7.35"/><path fill="#34A853" d="M26 32c2.7 0 4.964-.895 6.618-2.423l-3.232-2.509c-.895.6-2.04.955-3.386.955-2.605 0-4.809-1.76-5.595-4.123h-3.341v2.59A10 10 0 0 0 26 32"/><path fill="#FBBC04" d="M20.405 23.9c-.2-.6-.314-1.24-.314-1.9s.113-1.3.313-1.9v-2.59h-3.34A10 10 0 0 0 16 22c0 1.614.386 3.14 1.064 4.49z"/><path fill="#E94235" d="M26 15.977c1.468 0 2.786.505 3.823 1.496l2.868-2.868C30.959 12.99 28.695 12 26.001 12a9.99 9.99 0 0 0-8.937 5.51l3.34 2.59c.787-2.364 2.991-4.123 5.596-4.123"/></g><path fill="#1F1F1F" d="M54.89 23.76h1.71a3.94 3.94 0 0 1-.547 1.743q-.465.76-1.306 1.196-.84.438-2.044.438-.923 0-1.661-.328a3.6 3.6 0 0 1-1.265-.944q-.526-.615-.806-1.483a6.5 6.5 0 0 1-.274-1.942v-.827q0-1.073.28-1.941a4.3 4.3 0 0 1 .82-1.483 3.55 3.55 0 0 1 1.28-.95 4.2 4.2 0 0 1 1.688-.329q1.189 0 2.01.438.82.437 1.27 1.21.459.773.561 1.77h-1.709a3.2 3.2 0 0 0-.3-1.1 1.55 1.55 0 0 0-.67-.698q-.445-.246-1.162-.246-.588 0-1.026.219-.437.219-.731.642a3.1 3.1 0 0 0-.445 1.046q-.143.615-.143 1.409v.84q0 .752.13 1.368.137.608.41 1.046.28.437.71.676.432.24 1.033.24.732 0 1.183-.233a1.55 1.55 0 0 0 .69-.677q.24-.45.315-1.1m2.79-.376v-.157q0-.8.232-1.484.232-.69.67-1.196a3 3 0 0 1 1.08-.793 3.5 3.5 0 0 1 1.45-.287q.813 0 1.448.287.643.28 1.087.793.445.506.677 1.196.233.683.233 1.484v.157q0 .8-.233 1.483a3.6 3.6 0 0 1-.676 1.197 3.1 3.1 0 0 1-1.08.792 3.5 3.5 0 0 1-1.443.28 3.6 3.6 0 0 1-1.456-.28 3.1 3.1 0 0 1-1.08-.793 3.6 3.6 0 0 1-.677-1.196 4.6 4.6 0 0 1-.232-1.483m1.647-.157v.157q0 .498.103.943.102.444.321.78.22.334.56.526.343.19.814.191.458 0 .793-.191.342-.192.56-.527a2.4 2.4 0 0 0 .322-.779q.11-.444.11-.943v-.157q0-.494-.11-.93a2.4 2.4 0 0 0-.328-.786 1.6 1.6 0 0 0-.56-.534 1.54 1.54 0 0 0-.8-.198q-.466 0-.807.198a1.6 1.6 0 0 0-.554.534q-.219.342-.321.786a4 4 0 0 0-.103.93m8.244-2.044V27h-1.647v-7.396h1.552zm-.294 1.845-.533-.006a4.8 4.8 0 0 1 .219-1.443 3.6 3.6 0 0 1 .602-1.128q.39-.471.93-.724a2.74 2.74 0 0 1 1.202-.26q.534 0 .964.15.438.144.745.472.315.328.479.854.165.52.164 1.279V27h-1.655v-4.785q0-.534-.157-.841a.88.88 0 0 0-.444-.444q-.286-.137-.718-.137-.423 0-.759.178-.335.177-.567.485-.226.307-.349.711a3 3 0 0 0-.123.861m9.844-3.424v1.203h-4.17v-1.203zm-2.967-1.812h1.648v7.164q0 .342.095.526a.5.5 0 0 0 .28.24q.179.06.418.061.17 0 .328-.02a3 3 0 0 0 .253-.041l.007 1.258a4 4 0 0 1-.479.109 3.5 3.5 0 0 1-.615.048q-.567 0-1.005-.198a1.48 1.48 0 0 1-.684-.664q-.246-.457-.246-1.216zm6.002 1.811V27h-1.654v-7.396zm-1.763-1.94q0-.377.246-.623.252-.253.697-.253.438 0 .69.253a.83.83 0 0 1 .253.622.82.82 0 0 1-.253.615q-.252.246-.69.246-.444 0-.697-.246a.83.83 0 0 1-.246-.615m5.202 3.52V27h-1.648v-7.396H83.5zm-.294 1.845-.533-.006a4.8 4.8 0 0 1 .218-1.443q.22-.655.602-1.128.39-.471.93-.724.54-.26 1.203-.26.532 0 .964.15.437.144.745.472.315.328.478.854.165.52.164 1.279V27h-1.654v-4.785q0-.534-.157-.841a.88.88 0 0 0-.445-.444q-.287-.137-.717-.137-.424 0-.76.178-.334.177-.567.485-.225.307-.348.711a3 3 0 0 0-.123.861m10.903 2.229v-5.654h1.654V27H94.3zm.233-1.538.553-.014q0 .745-.164 1.374-.165.622-.506 1.087-.342.458-.875.718-.533.253-1.278.253-.54 0-.991-.157a2 2 0 0 1-.78-.486 2.2 2.2 0 0 1-.499-.854q-.177-.526-.177-1.258v-4.779h1.647v4.792q0 .404.096.677.096.267.26.43.164.165.383.233.218.069.464.069.705 0 1.108-.274.41-.28.58-.752.179-.47.178-1.06m6.371 3.418a4 4 0 0 1-1.484-.267 3.3 3.3 0 0 1-1.12-.759 3.4 3.4 0 0 1-.705-1.141 4 4 0 0 1-.246-1.415v-.274q0-.868.253-1.572.252-.704.704-1.203.45-.506 1.066-.773.615-.266 1.333-.266.794 0 1.388.266.596.267.984.752.398.48.588 1.142.198.663.199 1.463v.704h-5.715V22.61h4.088v-.13a2.3 2.3 0 0 0-.178-.834 1.4 1.4 0 0 0-.485-.628q-.329-.24-.875-.24-.411 0-.732.178-.315.17-.526.5a2.6 2.6 0 0 0-.328.792q-.11.458-.11 1.032v.274q0 .485.13.902.136.41.397.718.26.308.628.485.37.171.841.171.595 0 1.06-.24.465-.238.807-.676l.868.84q-.24.35-.622.67a3.1 3.1 0 0 1-.937.514 3.7 3.7 0 0 1-1.271.198m9.741-1.778 1.709-5.756h1.053l-.288 1.723L111.301 27h-.944zm-1.005-5.756 1.333 5.784.109 1.613h-1.052l-2.003-7.396zm5.366 5.715 1.292-5.715h1.607L115.812 27h-1.052zm-1.422-5.715 1.689 5.688.212 1.709h-.944l-1.743-5.68-.287-1.716zm7.205 0V27h-1.654v-7.396zm-1.763-1.94q0-.377.246-.623.253-.253.697-.253.438 0 .69.253a.83.83 0 0 1 .253.622.82.82 0 0 1-.253.615q-.252.246-.69.246-.444 0-.697-.246a.84.84 0 0 1-.246-.615m6.959 1.94v1.204h-4.17v-1.203zm-2.967-1.811h1.647v7.164q0 .342.096.526a.5.5 0 0 0 .28.24q.179.06.417.061.172 0 .328-.02.158-.021.253-.041l.007 1.258a4 4 0 0 1-.478.109 3.5 3.5 0 0 1-.616.048q-.567 0-1.004-.198a1.48 1.48 0 0 1-.684-.664q-.246-.457-.246-1.216zm5.865-1.292V27h-1.641V16.5zm-.287 6.528-.533-.006q.006-.766.212-1.416.211-.65.588-1.128a2.61 2.61 0 0 1 2.098-1.011q.547 0 .985.15.444.15.765.485.321.329.486.862.17.526.17 1.285V27h-1.654v-4.765q0-.533-.157-.847a.9.9 0 0 0-.444-.452 1.6 1.6 0 0 0-.718-.143q-.444 0-.786.178-.335.177-.561.485-.225.307-.342.711a3.3 3.3 0 0 0-.109.861m17.732-1.114v3.8q-.211.282-.663.616-.444.328-1.182.568t-1.839.239a4.6 4.6 0 0 1-1.716-.315 3.8 3.8 0 0 1-1.347-.936 4.3 4.3 0 0 1-.868-1.497q-.307-.889-.307-2.024v-.69q0-1.128.28-2.01a4.3 4.3 0 0 1 .82-1.504q.534-.615 1.285-.93.759-.32 1.716-.32 1.224 0 2.024.41.806.402 1.244 1.12t.553 1.641h-1.681a2.6 2.6 0 0 0-.322-.93 1.6 1.6 0 0 0-.669-.642q-.431-.24-1.122-.24-.595 0-1.045.226-.452.226-.752.663a3.3 3.3 0 0 0-.445 1.067q-.15.628-.15 1.435v.704q0 .821.171 1.456.177.636.506 1.073.335.438.813.664.478.218 1.08.218.588 0 .964-.095a2.3 2.3 0 0 0 .595-.24q.225-.143.348-.273v-1.976h-2.071v-1.278zm1.422 1.47v-.157q0-.8.233-1.484.232-.69.67-1.196a3 3 0 0 1 1.08-.793 3.5 3.5 0 0 1 1.449-.287q.813 0 1.449.287.643.28 1.087.793.444.506.677 1.196.232.683.232 1.484v.157q0 .8-.232 1.483a3.6 3.6 0 0 1-.677 1.197 3.1 3.1 0 0 1-1.08.792q-.636.28-1.442.28a3.6 3.6 0 0 1-1.456-.28 3.15 3.15 0 0 1-1.081-.793 3.6 3.6 0 0 1-.676-1.196 4.6 4.6 0 0 1-.233-1.483m1.648-.157v.157q0 .498.102.943.103.444.322.78.218.334.56.526.342.19.814.191.457 0 .793-.191.34-.192.56-.527.219-.335.321-.779.11-.444.11-.943v-.157q0-.494-.11-.93a2.4 2.4 0 0 0-.328-.786 1.6 1.6 0 0 0-.56-.534 1.55 1.55 0 0 0-.8-.198q-.465 0-.807.198a1.6 1.6 0 0 0-.553.534q-.219.342-.322.786a4 4 0 0 0-.102.93m6.296.157v-.157q0-.8.232-1.484.232-.69.67-1.196a3 3 0 0 1 1.08-.793 3.5 3.5 0 0 1 1.449-.287q.814 0 1.45.287.642.28 1.086.793.445.506.677 1.196.233.683.233 1.484v.157q0 .8-.233 1.483-.232.684-.677 1.197a3.1 3.1 0 0 1-1.08.792q-.635.28-1.442.28a3.6 3.6 0 0 1-1.456-.28 3.1 3.1 0 0 1-1.08-.793 3.6 3.6 0 0 1-.677-1.196 4.6 4.6 0 0 1-.232-1.483m1.647-.157v.157q0 .498.103.943.102.444.321.78.22.334.56.526.343.19.814.191.458 0 .793-.191.342-.192.56-.527t.322-.779a4 4 0 0 0 .109-.943v-.157q0-.494-.109-.93a2.4 2.4 0 0 0-.328-.786 1.6 1.6 0 0 0-.561-.534 1.54 1.54 0 0 0-.8-.198q-.464 0-.806.198a1.6 1.6 0 0 0-.554.534q-.219.342-.321.786a4 4 0 0 0-.103.93m11.348-3.623h1.497v7.19q0 .999-.424 1.696a2.73 2.73 0 0 1-1.183 1.06q-.758.369-1.756.369-.424 0-.944-.123a4 4 0 0 1-.998-.397 2.5 2.5 0 0 1-.8-.704l.773-.97q.396.471.875.69.478.219 1.005.219.567 0 .964-.212.403-.206.622-.608.218-.405.218-.985v-5.55zm-5.025 3.78v-.144q0-.84.205-1.531.206-.698.588-1.196a2.6 2.6 0 0 1 .93-.773 2.7 2.7 0 0 1 1.237-.273q.719 0 1.224.26a2.3 2.3 0 0 1 .854.745q.342.478.534 1.148.198.663.294 1.477v.458a7.5 7.5 0 0 1-.301 1.449 4 4 0 0 1-.561 1.135 2.4 2.4 0 0 1-.861.738q-.506.26-1.196.26-.677 0-1.224-.28a2.8 2.8 0 0 1-.93-.787 3.7 3.7 0 0 1-.588-1.19 5.3 5.3 0 0 1-.205-1.496m1.648-.144v.144q0 .505.096.943.102.438.307.773.212.327.533.52.329.183.773.184.58 0 .95-.246.376-.247.574-.663.206-.425.287-.944v-1.237a3 3 0 0 0-.171-.752 2 2 0 0 0-.335-.608 1.4 1.4 0 0 0-.533-.41q-.321-.15-.759-.151-.444 0-.772.191a1.56 1.56 0 0 0-.54.527 2.6 2.6 0 0 0-.308.779 4.2 4.2 0 0 0-.102.95m8.346-6.74V27h-1.654V16.5zm5.066 10.637a3.9 3.9 0 0 1-1.483-.267 3.3 3.3 0 0 1-1.122-.759 3.4 3.4 0 0 1-.704-1.141 4 4 0 0 1-.246-1.415v-.274q0-.868.253-1.572t.704-1.203a3 3 0 0 1 1.067-.773q.615-.266 1.333-.266.793 0 1.387.266.595.267.985.752.396.48.588 1.142.198.663.198 1.463v.704h-5.715V22.61h4.088v-.13a2.3 2.3 0 0 0-.178-.834 1.4 1.4 0 0 0-.485-.628q-.329-.24-.875-.24-.41 0-.732.178a1.45 1.45 0 0 0-.526.5 2.6 2.6 0 0 0-.328.792q-.11.458-.109 1.032v.274q0 .485.129.902.138.41.397.718.26.308.629.485.369.171.841.171.594 0 1.059-.24.465-.238.807-.676l.868.84a3.4 3.4 0 0 1-.622.67q-.382.315-.937.514a3.7 3.7 0 0 1-1.271.198"/><defs><clipPath id="a"><path fill="#fff" d="M16 12h20v20H16z"/></clipPath></defs></svg>